<svg xmlns="http://www.w3.org/2000/svg" xmlns:xlink="http://www.w3.org/1999/xlink" width="40" zoomAndPan="magnify" viewBox="0 0 30 30.000001" height="40" preserveAspectRatio="xMidYMid meet" version="1.2"><defs><clipPath id="a905b17639"><path d="M 2.171875 1.929688 L 27.347656 1.929688 L 27.347656 27.101562 L 2.171875 27.101562 Z M 2.171875 1.929688 "/></clipPath><clipPath id="15715ed1e2"><path d="M 14.761719 1.929688 C 7.808594 1.929688 2.171875 7.566406 2.171875 14.515625 C 2.171875 21.46875 7.808594 27.101562 14.761719 27.101562 C 21.710938 27.101562 27.347656 21.46875 27.347656 14.515625 C 27.347656 7.566406 21.710938 1.929688 14.761719 1.929688 Z M 14.761719 1.929688 "/></clipPath></defs><g id="19d03d1139"><g clip-rule="nonzero" clip-path="url(#a905b17639)"><g clip-rule="nonzero" clip-path="url(#15715ed1e2)"><path style=" stroke:none;fill-rule:nonzero;fill:#2d4a3e;fill-opacity:1;" d="M 2.171875 1.929688 L 27.347656 1.929688 L 27.347656 27.101562 L 2.171875 27.101562 Z M 2.171875 1.929688 "/></g></g><g style="fill:#fafaf9;fill-opacity:1;"><g transform="translate(11.272229, 18.208222)"><path style="stroke:none" d="M 0.828125 0 L 0.828125 -7 L 3.125 -7 C 3.820312 -7 4.425781 -6.851562 4.9375 -6.5625 C 5.445312 -6.28125 5.84375 -5.878906 6.125 -5.359375 C 6.40625 -4.835938 6.546875 -4.21875 6.546875 -3.5 C 6.546875 -2.789062 6.40625 -2.171875 6.125 -1.640625 C 5.84375 -1.117188 5.445312 -0.710938 4.9375 -0.421875 C 4.425781 -0.140625 3.820312 0 3.125 0 Z M 1.578125 -0.703125 L 3.125 -0.703125 C 3.664062 -0.703125 4.132812 -0.816406 4.53125 -1.046875 C 4.925781 -1.273438 5.226562 -1.597656 5.4375 -2.015625 C 5.65625 -2.429688 5.765625 -2.925781 5.765625 -3.5 C 5.765625 -4.070312 5.65625 -4.566406 5.4375 -4.984375 C 5.21875 -5.398438 4.910156 -5.722656 4.515625 -5.953125 C 4.117188 -6.179688 3.65625 -6.296875 3.125 -6.296875 L 1.578125 -6.296875 Z M 1.578125 -0.703125 "/></g></g></g></svg>